<?xml version="1.0" encoding="UTF-8"?>
<svg data-bbox="0 50.188 511.999 411.624" xmlns="http://www.w3.org/2000/svg" viewBox="0 0 512 512" height="512" width="512" data-type="color">
    <g>
        <path fill="#ffffff" d="M399.5 401.812h-347a7.5 7.5 0 0 0 0 15h347a7.5 7.5 0 0 0 0-15Zm0-30h-347a7.5 7.5 0 0 0 0 15h347a7.5 7.5 0 0 0 0-15Zm45-97.748a7.5 7.5 0 0 0-7.5 7.5v142.748c0 12.407-10.093 22.5-22.5 22.5h-377c-12.407 0-22.5-10.093-22.5-22.5V184.688c0-12.407 10.093-22.5 22.5-22.5h234.345a7.5 7.5 0 0 0 0-15H37.5c-20.678 0-37.5 16.822-37.5 37.5v239.624c0 20.678 16.822 37.5 37.5 37.5h377c20.678 0 37.5-16.822 37.5-37.5V281.564a7.5 7.5 0 0 0-7.5-7.5ZM403.173 50.188c-60.008 0-108.828 48.82-108.828 108.827a108.44 108.44 0 0 0 5.176 33.173H247.5a7.5 7.5 0 0 0 0 15h58.107a109.006 109.006 0 0 0 9 15H247.5a7.5 7.5 0 0 0 0 15h80.042c19.596 18.964 46.272 30.655 75.63 30.655 60.007 0 108.827-48.82 108.827-108.828C512 99.008 463.18 50.188 403.173 50.188Zm0 202.655c-51.737 0-93.828-42.091-93.828-93.828 0-51.736 42.091-93.827 93.828-93.827 51.736 0 93.827 42.091 93.827 93.827 0 51.737-42.091 93.828-93.827 93.828ZM72.315 355.395c2.286.638 5.78 1.313 10.185 1.417h89.625c19.077.373 37.894-16.669 37.5-37.5v-89.624c0-20.678-16.822-37.5-37.5-37.5H82.5c-20.678 0-37.5 16.822-37.5 37.5v89.624c0 17.147 11.573 31.633 27.315 36.083Zm11.082-13.583c5.965-18.775 23.673-32.171 43.915-32.171 20.243 0 37.951 13.396 43.915 32.171h-87.83Zm15.188-75.897c0-15.84 12.887-28.727 28.727-28.727s28.727 12.887 28.727 28.727-12.887 28.727-28.727 28.727-28.727-12.888-28.727-28.727ZM60 229.688c0-12.407 10.093-22.5 22.5-22.5h89.625c12.407 0 22.5 10.093 22.5 22.5v89.624c0 7.381-3.573 13.942-9.079 18.048-5.129-16.206-16.845-29.396-31.804-36.64 10.501-7.994 17.297-20.619 17.297-34.805 0-24.111-19.616-43.727-43.727-43.727-24.111 0-43.727 19.616-43.727 43.727 0 14.186 6.795 26.811 17.297 34.805-14.958 7.244-26.674 20.434-31.803 36.64C63.573 333.254 60 326.693 60 319.312v-89.624Zm380.6-97.001-52.03 52.03a1.867 1.867 0 0 1-2.637 0l-20.188-20.188a7.5 7.5 0 0 0-10.606 0 7.5 7.5 0 0 0 0 10.606l20.188 20.188a16.811 16.811 0 0 0 11.925 4.932c4.319 0 8.637-1.644 11.925-4.932l52.03-52.03a7.5 7.5 0 0 0-10.607-10.606Zm-41.1 179.125h-152a7.5 7.5 0 0 0 0 15h152a7.5 7.5 0 0 0 0-15Zm0 30h-152a7.5 7.5 0 0 0 0 15h152a7.5 7.5 0 0 0 0-15Z" data-color="1"/>
    </g>
</svg>
