<?xml version="1.0" encoding="UTF-8"?>
<svg data-bbox="0.178 -0.001 580.97 581" xmlns="http://www.w3.org/2000/svg" viewBox="0 0 581 582" height="582" width="581" data-type="color">
    <g>
        <g clip-path="url(#a070a62c-cfd0-4c93-909e-e8f929817167)">
            <path fill="#ffffff" d="M329.398 367.98c0 53.477 43.352 96.829 96.829 96.829 53.472 0 96.824-43.352 96.824-96.829 0-53.472-43.352-96.824-96.824-96.824-53.454.059-96.77 43.375-96.829 96.824Zm96.829-77.46c42.781 0 77.461 34.679 77.461 77.46 0 42.782-34.68 77.461-77.461 77.461-42.782 0-77.461-34.679-77.461-77.461.046-42.757 34.699-77.414 77.461-77.46Z" data-color="1"/>
            <path fill="#ffffff" d="M370.898 561.637h110.664V581H370.898v-19.363Z" data-color="1"/>
            <path fill="#ffffff" d="M329.398 522.902h193.657v19.368H329.398v-19.368Z" data-color="1"/>
            <path fill="#ffffff" d="M116.379 522.902h19.367v19.368h-19.367v-19.368Z" data-color="1"/>
            <path fill="#ffffff" d="M58.285 542.27h19.363v19.367H58.285V542.27Z" data-color="1"/>
            <path fill="#ffffff" d="M117.348 468.418a733.346 733.346 0 0 0 93.156-286.605l90.051 89.515a9.666 9.666 0 0 0 6.777 2.817 9.667 9.667 0 0 0 8.664-5.352c18.254-36.433 11.106-80.465-17.738-109.25l-7.918-7.922h68.105c5.348.004 9.688-4.328 9.688-9.675a9.66 9.66 0 0 0-.496-3.075c-12.86-38.672-49.047-64.75-89.801-64.71H265.25l48.355-48.637c3.774-3.79 3.758-9.918-.031-13.692a9.645 9.645 0 0 0-2.504-1.8c-36.449-18.274-80.504-11.13-109.308 17.73l-9.246 9.246a94.654 94.654 0 0 0-8.395 9.684 93.081 93.081 0 0 0-8.32-9.684l-9.246-9.246C137.773-1.078 93.742-8.222 57.316 10.032c-4.785 2.39-6.726 8.206-4.336 12.988a9.65 9.65 0 0 0 1.801 2.504l48.41 48.636h-12.71C49.727 74.121 13.535 100.2.68 138.871c-1.696 5.071 1.043 10.555 6.117 12.25.988.332 2.027.5 3.074.5h68.04l-7.919 7.922C41.148 188.328 34 232.36 52.25 268.793a9.681 9.681 0 0 0 15.492 2.535l83.856-83.359A524.798 524.798 0 0 1 50.363 443.863a361.441 361.441 0 0 0-39.523-8.054l-6.051-.61-1.937 19.278 5.644.551c9.684 1.386 19.305 3.343 28.875 5.558-1.937 2.43-3.875 4.899-5.879 7.293l14.852 12.422a545.144 545.144 0 0 0 126.672-313.633l11.144-11.074 8.344 8.297A707.954 707.954 0 0 1 69.719 507.625l15.86 11.098c7.612-10.867 14.874-22.145 21.913-33.637a343.432 343.432 0 0 1 117.16 91.789l14.977-12.269a361.713 361.713 0 0 0-64.301-61.067h405.82v-19.367H146.641c-9.493-5.73-19.289-10.922-29.293-15.754Zm186.429-221.211L201.473 145.492a74.689 74.689 0 0 1 73.918 18.493l9.246 9.25a75.176 75.176 0 0 1 19.14 73.972Zm39.895-114.949H263.5a94.43 94.43 0 0 0-59.977-7.156 75.088 75.088 0 0 1 61.207-31.574h13.071a75.181 75.181 0 0 1 65.871 38.73ZM206.176 50.699l9.25-9.246a75.233 75.233 0 0 1 74.012-19.144l-57.399 57.738a94.441 94.441 0 0 0-45.711 35.875 73.29 73.29 0 0 1 19.879-65.223h-.031Zm-53.34-9.246 9.246 9.246a73.472 73.472 0 0 1 11.137 14.668 92.123 92.123 0 0 0-7.399 32.188 94.45 94.45 0 0 0-29.531-17.508L78.879 22.31a75.2 75.2 0 0 1 73.984 19.144h-.027ZM90.449 93.528h13.074a75.109 75.109 0 0 1 61.27 31.562 94.472 94.472 0 0 0-59.945 7.168H24.645a75.188 75.188 0 0 1 65.836-38.73h-.032ZM64.54 247.207a75.178 75.178 0 0 1 19.145-73.972l9.246-9.25a74.006 74.006 0 0 1 52.5-21.61 76.592 76.592 0 0 1 21.457 3.078L64.539 247.207Z" data-color="1"/>
        </g>
        <defs fill="none">
            <clipPath id="a070a62c-cfd0-4c93-909e-e8f929817167">
                <path fill="#ffffff" d="M581 0v581.358H0V0h581z"/>
            </clipPath>
        </defs>
    </g>
</svg>
