<?xml version="1.0" encoding="UTF-8"?>
<svg data-bbox="0.017 0 480.005 480.037" xmlns="http://www.w3.org/2000/svg" viewBox="0 0 481 481" height="481" width="481" data-type="color">
    <g>
        <g clip-path="url(#bf9e637e-2169-4303-99c5-fb512cb6fabe)">
            <path fill="#ffffff" d="M449.542 358.576c16.964-13.998 19.368-39.098 5.37-56.062a39.823 39.823 0 0 0-30.893-14.477c-1.113 0-2.16.239-3.25.329a40.249 40.249 0 0 0-36.75-24.329 39.703 39.703 0 0 0-37.181 25.675 35.768 35.768 0 0 0-21.638 0c-7.777-20.534-30.727-30.875-51.261-23.098a39.758 39.758 0 0 0-23.045 22.959 37.44 37.44 0 0 0-21.694.139c-7.778-20.535-30.731-30.876-51.265-23.097a39.76 39.76 0 0 0-23.097 23.097 35.768 35.768 0 0 0-21.638 0 39.704 39.704 0 0 0-37.181-25.675 40.246 40.246 0 0 0-36.75 24.329c-1.09-.089-2.137-.329-3.25-.329-21.993-.098-39.902 17.652-40 39.645a39.822 39.822 0 0 0 14.477 30.893A59.333 59.333 0 0 0 .019 410.943v61.094a7.995 7.995 0 0 0 7.99 8h464.01a7.995 7.995 0 0 0 8-7.991v-61.103a59.33 59.33 0 0 0-30.477-52.367Zm-25.523-54.538c13.249.014 23.986 10.751 24 24 0 13.255-10.745 24-24 24s-24-10.745-24-24 10.745-24 24-24Zm-40-24a24.097 24.097 0 0 1 21.19 12.918 39.872 39.872 0 0 0-21.179 34.972 24.425 24.425 0 0 1-8.16-1.359 39.734 39.734 0 0 0-14.803-29.46 23.842 23.842 0 0 1 22.952-17.071Zm-48 24c13.249.014 23.986 10.751 24 24 0 13.255-10.745 24-24 24s-24-10.745-24-24 10.745-24 24-24Zm-48-24a23.84 23.84 0 0 1 22.951 17.07 39.726 39.726 0 0 0-14.785 29.284 24.398 24.398 0 0 1-16.274.024 40.015 40.015 0 0 0-14.811-29.469 23.857 23.857 0 0 1 22.919-16.909Zm-68.617 35.668a23.937 23.937 0 0 1 20.617-11.668 23.391 23.391 0 0 1 12.203 3.383c11.351 6.775 15.06 21.469 8.285 32.82-6.775 11.351-21.469 15.06-32.82 8.285-11.351-6.775-15.06-21.469-8.285-32.82Zm-27.383-35.668a23.84 23.84 0 0 1 22.951 17.07 39.726 39.726 0 0 0-14.785 29.284 24.391 24.391 0 0 1-16.333 0 39.727 39.727 0 0 0-14.785-29.284 23.842 23.842 0 0 1 22.952-17.07Zm-48 24c13.249.014 23.986 10.751 24 24 0 13.255-10.745 24-24 24s-24-10.745-24-24 10.745-24 24-24Zm-48-24a23.84 23.84 0 0 1 22.951 17.07 39.734 39.734 0 0 0-14.803 29.46 24.397 24.397 0 0 1-8.16 1.359 39.873 39.873 0 0 0-21.18-34.972 24.105 24.105 0 0 1 21.192-12.917Zm-40 24c13.255 0 24 10.745 24 24s-10.745 24-24 24c-13.25-.014-23.986-10.751-24-24 0-13.255 10.745-24 24-24Zm32 106.906v53.094h-72v-53.094c-.746-22.873 17.13-42.049 40-42.906a39.712 39.712 0 0 1 35.335 23.076 61.222 61.222 0 0 0-3.335 19.83Zm-6.522-52.33a40.031 40.031 0 0 0 11.243-14.781c1.092.089 2.18.205 3.279.205a40.075 40.075 0 0 0 10.816-1.512 39.932 39.932 0 0 0 11.66 16.05 57.019 57.019 0 0 0-18.506 16.092 56.577 56.577 0 0 0-18.492-16.054Zm102.522 52.33v53.094h-80v-53.094c-.746-22.873 17.131-42.049 40-42.906 22.869.857 40.747 20.033 40 42.906Zm-14.477-52.368a39.943 39.943 0 0 0 11.661-16.05 39.445 39.445 0 0 0 21.633 0 39.932 39.932 0 0 0 11.66 16.05 57.595 57.595 0 0 0-22.477 22.183 57.595 57.595 0 0 0-22.477-22.183Zm110.477 52.368v53.094h-80v-53.094c-.746-22.873 17.131-42.049 40-42.906 22.869.857 40.747 20.033 40 42.906Zm-14.477-52.368a39.943 39.943 0 0 0 11.661-16.05 39.445 39.445 0 0 0 21.633 0 39.932 39.932 0 0 0 11.66 16.05 57.595 57.595 0 0 0-22.477 22.183 57.595 57.595 0 0 0-22.477-22.183Zm110.477 52.368v53.094h-80v-53.094c-1.55-22.091 15.101-41.257 37.193-42.807 22.091-1.551 41.257 15.101 42.807 37.193a40.147 40.147 0 0 1 0 5.614Zm4.03-36.276a57.045 57.045 0 0 0-18.507-16.092 39.95 39.95 0 0 0 11.661-16.05 40.08 40.08 0 0 0 10.816 1.512c1.098 0 2.188-.116 3.279-.205a40.029 40.029 0 0 0 11.243 14.781 56.577 56.577 0 0 0-18.492 16.054Zm83.97 36.276v53.094h-72v-53.094a61.228 61.228 0 0 0-3.335-19.831 39.712 39.712 0 0 1 35.335-23.076c22.869.858 40.747 20.034 40 42.907Z" data-color="1"/>
            <path fill="#ffffff" d="M335.048 18.817c-.28-.286-.563-.569-.849-.849-24.372-23.957-63.448-23.957-87.82 0l-6.359 6.29-6.359-6.29c-24.372-23.957-63.448-23.957-87.82 0-23.425 22.956-23.805 60.555-.849 83.979.288.294.579.584.873.872l88.555 86.93a7.998 7.998 0 0 0 11.203 0l88.578-86.953c23.422-22.956 23.803-60.554.847-83.979Zm-11.381 71.884a38.06 38.06 0 0 1-.696.696l-82.952 81.43-82.93-81.406c-17.142-16.745-17.464-44.217-.719-61.359.237-.242.476-.482.719-.719 18.13-17.812 47.19-17.812 65.32 0l11.984 11.86a8.007 8.007 0 0 0 11.25 0l11.984-11.86c18.13-17.812 47.19-17.812 65.32 0 17.143 16.745 17.465 44.216.72 61.358Z" data-color="1"/>
            <path fill="#ffffff" d="M118.194 133.526a37.478 37.478 0 0 0-2.316-2.316c-14.304-13.045-35.604-14.81-51.859-4.297-16.258-10.505-37.552-8.741-51.859 4.297-15.235 13.956-16.272 37.621-2.316 52.856.738.805 1.51 1.578 2.316 2.316l46.391 43.492a7.956 7.956 0 0 0 5.469 2.164 7.958 7.958 0 0 0 5.469-2.164l46.391-43.492c15.234-13.956 16.271-37.621 2.314-52.856Zm-11.69 39.621a21.54 21.54 0 0 1-1.563 1.563l-40.922 38.359-40.922-38.359a21.73 21.73 0 0 1-7.078-15.922 21.71 21.71 0 0 1 7.078-15.906c10.044-9.156 25.409-9.156 35.453 0a7.98 7.98 0 0 0 10.937 0c10.044-9.156 25.409-9.156 35.453 0 8.79 7.926 9.49 21.476 1.564 30.265Z" data-color="1"/>
            <path fill="#ffffff" d="M470.194 133.526a37.478 37.478 0 0 0-2.316-2.316c-14.304-13.046-35.604-14.811-51.859-4.297-16.258-10.505-37.552-8.741-51.859 4.297-15.235 13.956-16.272 37.621-2.316 52.856.738.805 1.51 1.578 2.316 2.316l46.391 43.492a7.992 7.992 0 0 0 10.937 0l46.391-43.492c15.235-13.956 16.272-37.621 2.315-52.856Zm-11.69 39.621a21.54 21.54 0 0 1-1.563 1.563l-40.922 38.359-40.922-38.359c-8.789-7.926-9.489-21.476-1.563-30.265a21.34 21.34 0 0 1 1.563-1.563c10.044-9.156 25.409-9.156 35.453 0a7.98 7.98 0 0 0 10.937 0c10.044-9.156 25.409-9.156 35.453 0 8.79 7.926 9.49 21.476 1.564 30.265Z" data-color="1"/>
        </g>
        <defs fill="none">
            <clipPath id="bf9e637e-2169-4303-99c5-fb512cb6fabe">
                <path fill="#ffffff" d="M480.038 0v480.038H0V0h480.038z"/>
            </clipPath>
        </defs>
    </g>
</svg>
